#!OML:ASF F:\VICON\USERDATA\INSTALL\rory3\rory3.ASF
:FULLY-SPECIFIED
:DEGREES
251
root 0.541186 16.2998 -13.3396 29.7054 -0.630832 -1.26261
lowerback -14.6537 0.0896717 -1.92686
upperback -11.5885 0.31125 -0.50018
thorax -4.09719 0.262648 0.588378
lowerneck -18.0348 0.336934 -6.60325
upperneck 24.8089 3.22281 -2.48623
head 10.9955 0.521334 0.675159
rclavicle 3.96638e-015 3.97569e-015
rhumerus -55.4602 9.27938 -90.2756
rradius 18.3496
rwrist -8.77309
rhand 23.291 1.19626
rfingers 7.12502
rthumb 47.5876 -21.2067
lclavicle 3.96638e-015 3.97569e-015
lhumerus -55.4599 0.641086 75.5555
lradius 36.1025
lwrist 5.35055
lhand 16.4636 17.0911
lfingers 7.12502
lthumb 41.2275 41.9348
rfemur -21.9508 -6.72936 31.9585
rtibia 44.0197
rfoot 25.5167 -26.1894
rtoes 22.4646
lfemur -50.4006 5.45785 -35.7838
ltibia 40.8008
lfoot -42.3178 25.9111
ltoes 14.2422
252
root 0.540139 16.2975 -13.3418 29.6878 -0.617963 -1.28268
lowerback -14.565 0.103019 -1.85027
upperback -11.6185 0.317416 -0.552461
thorax -4.17574 0.259531 0.490512
lowerneck -18.1673 0.339566 -6.6321
upperneck 24.9612 3.23292 -2.40003
head 11.0755 0.526413 0.714173
rclavicle 1.11009e-014 -7.95139e-015
rhumerus -55.495 9.29928 -90.4436
rradius 18.2794
rwrist -8.86307
rhand 22.9553 1.10641
rfingers 7.12502
rthumb 47.2775 -21.4366
lclavicle 1.11009e-014 -7.95139e-015
lhumerus -55.496 0.503431 75.584
lradius 36.0641
lwrist 5.46418
lhand 16.2116 17.5433
lfingers 7.12502
lthumb 40.9909 42.4626
rfemur -21.9175 -6.80481 32.0172
rtibia 44.0428
rfoot 24.6254 -27.2634
rtoes 24.7782
lfemur -50.4142 5.52387 -35.7877
ltibia 40.8264
lfoot -42.2874 25.8785
ltoes 13.7388
253
root 0.536226 16.2975 -13.3448 29.7226 -0.727532 -1.22001
lowerback -14.5109 0.0795894 -2.01456
upperback -11.6432 0.301191 -0.537818
thorax -4.23337 0.262861 0.59584
lowerneck -18.3375 0.339848 -6.63528
upperneck 25.0475 3.28428 -2.50112
head 11.1436 0.530667 0.68686
rclavicle 9.01985e-015 1.59028e-015
rhumerus -55.5015 9.5656 -90.6746
rradius 18.2689
rwrist -9.11397
rhand 22.746 0.824058
rfingers 7.12502
rthumb 47.0841 -21.805
lclavicle 9.01985e-015 1.59028e-015
lhumerus -55.4012 0.639788 75.5752
lradius 35.9376
lwrist 5.51847
lhand 16.0385 17.2866
lfingers 7.12502
lthumb 40.8283 42.2573
rfemur -22.0025 -6.79034 31.9706
rtibia 44.1067
rfoot 24.0037 -28.0957
rtoes 25.8111
lfemur -50.4725 5.54836 -35.8816
ltibia 40.8151
lfoot -42.1301 25.8951
ltoes 14.3514
254
root 0.533506 16.2984 -13.3471 29.7344 -0.875312 -1.1776
lowerback -14.4965 0.0568338 -2.13691
upperback -11.6269 0.282815 -0.514829
thorax -4.22435 0.261748 0.68671
lowerneck -18.6427 0.340695 -6.66948
upperneck 25.244 3.35223 -2.55373
head 11.2781 0.539129 0.686051
rclavicle 2.68049e-015 -2.78299e-015
rhumerus -55.4703 9.74296 -90.7318
rradius 18.3768
rwrist -9.20761
rhand 22.7226 0.626822
rfingers 7.12502
rthumb 47.0624 -22.0119
lclavicle 2.68049e-015 -2.78299e-015
lhumerus -55.2504 0.839088 75.5416
lradius 35.7731
lwrist 5.32228
lhand 16.1839 17.3545
lfingers 7.12502
lthumb 40.9648 42.282
rfemur -22.0698 -6.7376 31.9064
rtibia 44.1734
rfoot 23.883 -28.0579
rtoes 24.5605
lfemur -50.4964 5.69734 -36.0258
ltibia 40.7851
lfoot -41.896 25.9392
ltoes 14.5891
255
root 0.534221 16.2982 -13.3456 29.657 -1.10555 -1.12105
lowerback -14.4809 0.101947 -2.24412
upperback -11.5894 0.352208 -0.555316
thorax -4.19472 0.301262 0.711643
lowerneck -18.8984 0.279712 -6.67237
upperneck 25.451 3.32372 -2.6219
head 11.4104 0.505045 0.659592
rclavicle -3.22714e-015 5.96354e-015
rhumerus -55.5081 9.79218 -90.766
rradius 18.5282
rwrist -9.42746
rhand 22.7378 0.431228
rfingers 7.12502
rthumb 47.0764 -22.2012
lclavicle -3.22714e-015 5.96354e-015
lhumerus -55.1955 0.759615 75.6621
lradius 35.7058
lwrist 5.33581
lhand 16.2188 17.8585
lfingers 7.12502
lthumb 40.9976 42.7756
rfemur -21.9932 -6.7054 31.7432
rtibia 44.2157
rfoot 24.1372 -27.6344
rtoes 22.9956
lfemur -50.4112 5.92581 -36.2294
ltibia 40.7631
lfoot -41.9048 26.0449
ltoes 14.0565
256
root 0.534526 16.2984 -13.3457 29.5624 -1.23796 -1.13432
lowerback -14.4458 0.129442 -2.25005
upperback -11.5486 0.388049 -0.567521
thorax -4.16951 0.318463 0.705965
lowerneck -19.1029 0.258758 -6.64468
upperneck 25.575 3.31961 -2.64692
head 11.4995 0.494651 0.646796
rclavicle 1.12282e-014 -1.19271e-014
rhumerus -55.5463 9.89785 -90.868
rradius 18.6055
rwrist -9.71246
rhand 22.8511 0.161876
rfingers 7.12502
rthumb 47.1812 -22.4241
lclavicle 1.12282e-014 -1.19271e-014
lhumerus -55.181 0.766121 75.72
lradius 35.5753
lwrist 5.46281
lhand 16.0402 17.9439
lfingers 7.12502
lthumb 40.8299 42.9141
rfemur -21.8933 -6.67928 31.6934
rtibia 44.2135
rfoot 24.5068 -27.77
rtoes 23.5912
lfemur -50.3447 6.00669 -36.2375
ltibia 40.7673
lfoot -41.9833 26.3049
ltoes 13.5033
